<svg xmlns="http://www.w3.org/2000/svg" xmlns:xlink="http://www.w3.org/1999/xlink" width="500" zoomAndPan="magnify" viewBox="0 0 375 374.999991" height="500" preserveAspectRatio="xMidYMid meet" version="1.0"><defs><g/><clipPath id="id1"><path d="M 134.667969 80.355469 L 239.667969 80.355469 L 239.667969 211.605469 L 134.667969 211.605469 Z M 134.667969 80.355469 " clip-rule="nonzero"/></clipPath></defs><rect x="-37.5" width="450" fill="#ffffff" y="-37.499999" height="449.999989" fill-opacity="1"/><rect x="-37.5" width="450" fill="#000000" y="-37.499999" height="449.999989" fill-opacity="1"/><rect x="-37.5" width="450" fill="#ffffff" y="-37.499999" height="449.999989" fill-opacity="1"/><rect x="-37.5" width="450" fill="#000000" y="-37.499999" height="449.999989" fill-opacity="1"/><g clip-path="url(#id1)"><path fill="#0045ff" d="M 121.527344 80.355469 L 252.777344 80.355469 L 252.777344 211.605469 L 121.527344 211.605469 Z M 121.527344 80.355469 " fill-opacity="1" fill-rule="nonzero"/></g><g fill="#ffffff" fill-opacity="1"><g transform="translate(147.690537, 167.329069)"><g><path d="M 43.453125 -45.078125 C 43.453125 -46.253906 43.035156 -47.273438 42.203125 -48.140625 C 41.367188 -49.003906 40.382812 -49.457031 39.25 -49.5 L 25.234375 -49.5 L 25.234375 -5.3125 C 25.285156 -4.03125 25.765625 -2.945312 26.671875 -2.0625 C 27.578125 -1.175781 28.671875 -0.734375 29.953125 -0.734375 L 30.921875 -0.734375 L 30.921875 0 L 14.75 0 L 14.75 -0.734375 L 15.71875 -0.734375 C 17 -0.734375 18.09375 -1.175781 19 -2.0625 C 19.90625 -2.945312 20.382812 -4.003906 20.4375 -5.234375 L 20.4375 -49.5 L 6.421875 -49.5 C 5.234375 -49.457031 4.234375 -49.003906 3.421875 -48.140625 C 2.617188 -47.273438 2.21875 -46.253906 2.21875 -45.078125 L 2.21875 -43.828125 L 1.46875 -43.75 L 1.46875 -53.046875 C 2.207031 -52.753906 3.488281 -52.457031 5.3125 -52.15625 C 7.132812 -51.863281 8.804688 -51.71875 10.328125 -51.71875 L 35.265625 -51.71875 C 37.671875 -51.71875 39.671875 -51.898438 41.265625 -52.265625 C 42.867188 -52.640625 43.84375 -52.898438 44.1875 -53.046875 L 44.1875 -43.75 L 43.453125 -43.828125 Z M 43.453125 -45.078125 "/></g></g></g><g fill="#ffffff" fill-opacity="1"><g transform="translate(185.164242, 167.329069)"><g><path d="M 5.390625 -0.734375 C 6.660156 -0.734375 7.75 -1.1875 8.65625 -2.09375 C 9.570312 -3.007812 10.054688 -4.109375 10.109375 -5.390625 L 10.109375 -46.265625 C 10.054688 -47.535156 9.570312 -48.625 8.65625 -49.53125 C 7.75 -50.445312 6.660156 -50.90625 5.390625 -50.90625 L 4.421875 -50.90625 L 4.421875 -51.640625 L 20.578125 -51.640625 L 20.578125 -50.90625 L 19.625 -50.90625 C 17.851562 -50.90625 16.5 -50.144531 15.5625 -48.625 C 15.125 -47.882812 14.90625 -47.097656 14.90625 -46.265625 L 14.90625 -2.28125 L 25.453125 -2.28125 C 29.097656 -2.28125 31.878906 -3.09375 33.796875 -4.71875 C 35.710938 -6.34375 37.3125 -8.753906 38.59375 -11.953125 L 39.328125 -11.953125 L 35.046875 0 L 4.421875 0 L 4.421875 -0.734375 Z M 5.390625 -0.734375 "/></g></g></g><g fill="#ffffff" fill-opacity="1"><g transform="translate(109.681517, 247.017361)"><g><path d="M 21.734375 -22.546875 C 21.734375 -23.128906 21.519531 -23.632812 21.09375 -24.0625 C 20.675781 -24.5 20.1875 -24.726562 19.625 -24.75 L 12.609375 -24.75 L 12.609375 -2.65625 C 12.640625 -2.019531 12.878906 -1.476562 13.328125 -1.03125 C 13.785156 -0.59375 14.335938 -0.375 14.984375 -0.375 L 15.453125 -0.375 L 15.453125 0 L 7.375 0 L 7.375 -0.375 L 7.859375 -0.375 C 8.492188 -0.375 9.039062 -0.59375 9.5 -1.03125 C 9.957031 -1.476562 10.195312 -2.007812 10.21875 -2.625 L 10.21875 -24.75 L 3.203125 -24.75 C 2.617188 -24.726562 2.125 -24.5 1.71875 -24.0625 C 1.3125 -23.632812 1.109375 -23.128906 1.109375 -22.546875 L 1.109375 -21.90625 L 0.734375 -21.875 L 0.734375 -26.53125 C 1.109375 -26.375 1.75 -26.222656 2.65625 -26.078125 C 3.5625 -25.929688 4.398438 -25.859375 5.171875 -25.859375 L 17.640625 -25.859375 C 18.835938 -25.859375 19.835938 -25.945312 20.640625 -26.125 C 21.441406 -26.3125 21.925781 -26.445312 22.09375 -26.53125 L 22.09375 -21.875 L 21.734375 -21.90625 Z M 21.734375 -22.546875 "/></g></g></g><g fill="#ffffff" fill-opacity="1"><g transform="translate(132.472699, 247.017361)"><g><path d="M 2.546875 -0.375 C 3.140625 -0.375 3.632812 -0.5625 4.03125 -0.9375 C 4.4375 -1.320312 4.65625 -1.785156 4.6875 -2.328125 L 4.6875 -19.84375 C 4.6875 -20.382812 4.476562 -20.835938 4.0625 -21.203125 C 3.644531 -21.578125 3.140625 -21.765625 2.546875 -21.765625 L 2.03125 -21.765625 L 2.03125 -22.140625 L 12.796875 -22.140625 C 13.804688 -22.140625 14.691406 -22.210938 15.453125 -22.359375 C 16.210938 -22.503906 16.707031 -22.625 16.9375 -22.71875 L 16.9375 -18.515625 L 16.53125 -18.5625 L 16.53125 -19.109375 C 16.53125 -19.628906 16.359375 -20.070312 16.015625 -20.4375 C 15.671875 -20.800781 15.226562 -20.984375 14.6875 -20.984375 L 7.015625 -20.984375 L 7.015625 -11.625 L 13.3125 -11.625 C 13.8125 -11.625 14.1875 -11.769531 14.4375 -12.0625 C 14.695312 -12.351562 14.828125 -12.722656 14.828125 -13.171875 L 14.828125 -13.65625 L 15.234375 -13.65625 L 15.234375 -8.484375 L 14.828125 -8.484375 L 14.828125 -8.96875 C 14.828125 -9.65625 14.570312 -10.117188 14.0625 -10.359375 C 13.863281 -10.441406 13.648438 -10.492188 13.421875 -10.515625 L 7.015625 -10.515625 L 7.015625 -1.140625 L 12.796875 -1.140625 C 13.929688 -1.140625 14.882812 -1.335938 15.65625 -1.734375 C 16.4375 -2.128906 17.03125 -2.597656 17.4375 -3.140625 C 17.84375 -3.679688 18.253906 -4.394531 18.671875 -5.28125 L 19.03125 -5.28125 L 17 0 L 2.03125 0 L 2.03125 -0.375 Z M 2.546875 -0.375 "/></g></g></g><g fill="#ffffff" fill-opacity="1"><g transform="translate(152.608601, 247.017361)"><g><path d="M 13.9375 0.515625 C 10.28125 0.492188 7.347656 -0.550781 5.140625 -2.625 C 2.941406 -4.707031 1.84375 -7.523438 1.84375 -11.078125 C 1.84375 -14.640625 2.941406 -17.457031 5.140625 -19.53125 C 7.347656 -21.613281 10.191406 -22.65625 13.671875 -22.65625 C 17.148438 -22.65625 20.109375 -21.914062 22.546875 -20.4375 L 23.359375 -15.203125 L 23.015625 -15.203125 C 22.503906 -17.359375 21.503906 -18.953125 20.015625 -19.984375 C 18.523438 -21.023438 16.421875 -21.546875 13.703125 -21.546875 C 10.984375 -21.546875 8.769531 -20.601562 7.0625 -18.71875 C 5.351562 -16.84375 4.5 -14.289062 4.5 -11.0625 C 4.5 -7.84375 5.359375 -5.289062 7.078125 -3.40625 C 8.804688 -1.53125 11.1875 -0.59375 14.21875 -0.59375 C 17.257812 -0.59375 19.875 -1.660156 22.0625 -3.796875 L 22.09375 -8.703125 C 22.125 -9.148438 21.984375 -9.5 21.671875 -9.75 C 21.367188 -10.007812 20.945312 -10.140625 20.40625 -10.140625 L 19.890625 -10.140625 L 19.890625 -10.515625 L 26.640625 -10.515625 L 26.640625 -10.140625 L 26.125 -10.140625 C 25.007812 -10.140625 24.453125 -9.648438 24.453125 -8.671875 L 24.453125 -4.25 C 23.421875 -2.96875 22 -1.851562 20.1875 -0.90625 C 18.382812 0.0390625 16.300781 0.515625 13.9375 0.515625 Z M 13.9375 0.515625 "/></g></g></g><g fill="#ffffff" fill-opacity="1"><g transform="translate(179.972773, 247.017361)"><g><path d="M 2.6875 -0.375 C 3.332031 -0.375 3.878906 -0.597656 4.328125 -1.046875 C 4.785156 -1.503906 5.023438 -2.050781 5.046875 -2.6875 L 5.046875 -23.125 C 5.023438 -23.769531 4.785156 -24.316406 4.328125 -24.765625 C 3.878906 -25.222656 3.332031 -25.453125 2.6875 -25.453125 L 2.21875 -25.453125 L 2.21875 -25.828125 L 10.296875 -25.828125 L 10.296875 -25.453125 L 9.8125 -25.453125 C 8.925781 -25.453125 8.25 -25.070312 7.78125 -24.3125 C 7.5625 -23.9375 7.453125 -23.539062 7.453125 -23.125 L 7.453125 -1.140625 L 12.734375 -1.140625 C 14.546875 -1.140625 15.929688 -1.546875 16.890625 -2.359375 C 17.847656 -3.171875 18.648438 -4.375 19.296875 -5.96875 L 19.65625 -5.96875 L 17.515625 0 L 2.21875 0 L 2.21875 -0.375 Z M 2.6875 -0.375 "/></g></g></g><g fill="#ffffff" fill-opacity="1"><g transform="translate(200.698742, 247.017361)"><g><path d="M 8.03125 -21.1875 C 9.925781 -22.164062 12.007812 -22.65625 14.28125 -22.65625 C 16.5625 -22.65625 18.648438 -22.164062 20.546875 -21.1875 C 22.441406 -20.21875 23.945312 -18.847656 25.0625 -17.078125 C 26.1875 -15.304688 26.75 -13.300781 26.75 -11.0625 C 26.75 -8.820312 26.1875 -6.816406 25.0625 -5.046875 C 23.945312 -3.273438 22.441406 -1.90625 20.546875 -0.9375 C 18.648438 0.03125 16.707031 0.515625 14.71875 0.515625 C 12.726562 0.515625 10.96875 0.234375 9.4375 -0.328125 C 7.914062 -0.898438 6.59375 -1.6875 5.46875 -2.6875 C 4.351562 -3.695312 3.46875 -4.925781 2.8125 -6.375 C 2.164062 -7.832031 1.84375 -9.535156 1.84375 -11.484375 C 1.84375 -13.441406 2.398438 -15.304688 3.515625 -17.078125 C 4.640625 -18.847656 6.144531 -20.21875 8.03125 -21.1875 Z M 7.359375 -3.515625 C 9.210938 -1.566406 11.515625 -0.59375 14.265625 -0.59375 C 17.023438 -0.59375 19.335938 -1.566406 21.203125 -3.515625 C 23.078125 -5.472656 24.015625 -7.988281 24.015625 -11.0625 C 24.015625 -14.132812 23.078125 -16.648438 21.203125 -18.609375 C 19.335938 -20.566406 17.023438 -21.546875 14.265625 -21.546875 C 11.515625 -21.546875 9.210938 -20.566406 7.359375 -18.609375 C 5.503906 -16.648438 4.578125 -14.132812 4.578125 -11.0625 C 4.578125 -7.988281 5.503906 -5.472656 7.359375 -3.515625 Z M 7.359375 -3.515625 "/></g></g></g><g fill="#ffffff" fill-opacity="1"><g transform="translate(229.243041, 247.017361)"><g><path d="M 9.625 -21.765625 C 8.71875 -21.765625 8.03125 -21.429688 7.5625 -20.765625 C 7.363281 -20.472656 7.253906 -20.140625 7.234375 -19.765625 L 7.234375 0 C 7.234375 1.789062 6.5625 3.332031 5.21875 4.625 C 3.875 5.914062 2.296875 6.5625 0.484375 6.5625 L 0.484375 6.203125 C 1.679688 5.828125 2.710938 5.035156 3.578125 3.828125 C 4.441406 2.628906 4.875 1.351562 4.875 0 L 4.875 -19.921875 C 4.820312 -20.441406 4.566406 -20.878906 4.109375 -21.234375 C 3.660156 -21.585938 3.113281 -21.765625 2.46875 -21.765625 L 2.03125 -21.765625 L 1.984375 -22.140625 L 10.109375 -22.140625 L 10.109375 -21.765625 Z M 9.625 -21.765625 "/></g></g></g><g fill="#ffffff" fill-opacity="1"><g transform="translate(240.638632, 247.017361)"><g><path d="M 24.34375 -0.375 L 24.640625 -0.375 L 24.640625 0 L 17.078125 0 L 17.078125 -0.375 L 17.375 -0.375 C 17.84375 -0.375 18.195312 -0.53125 18.4375 -0.84375 C 18.6875 -1.164062 18.8125 -1.46875 18.8125 -1.75 C 18.8125 -2.03125 18.765625 -2.304688 18.671875 -2.578125 L 16.640625 -7.484375 L 7.296875 -7.484375 L 5.28125 -2.6875 C 5.15625 -2.375 5.09375 -2.070312 5.09375 -1.78125 C 5.09375 -1.5 5.210938 -1.191406 5.453125 -0.859375 C 5.703125 -0.535156 6.070312 -0.375 6.5625 -0.375 L 6.859375 -0.375 L 6.859375 0 L -0.1875 0 L -0.1875 -0.375 L 0.109375 -0.375 C 0.628906 -0.375 1.148438 -0.550781 1.671875 -0.90625 C 2.203125 -1.257812 2.640625 -1.796875 2.984375 -2.515625 C 8.367188 -14.015625 11.175781 -20.035156 11.40625 -20.578125 C 11.820312 -21.617188 12.039062 -22.3125 12.0625 -22.65625 L 12.390625 -22.65625 L 21.5 -2.515625 C 22.21875 -1.085938 23.164062 -0.375 24.34375 -0.375 Z M 7.78125 -8.59375 L 16.1875 -8.59375 L 12.0625 -18.703125 Z M 7.78125 -8.59375 "/></g></g></g></svg>